<svg width="31" height="32" viewBox="0 0 31 32" fill="none" xmlns="http://www.w3.org/2000/svg">
<path d="M25.1875 16C25.1875 22.8168 17.8286 27.373 15.9383 28.4309C15.6636 28.5846 15.3364 28.5846 15.0617 28.4309C13.1714 27.373 5.8125 22.8168 5.8125 16C5.8125 10 10.5064 6 15.5 6C20.6667 6 25.1875 10 25.1875 16Z" stroke="white" stroke-width="2"/>
<path d="M15.5003 11.6666C17.7716 11.6668 19.6662 13.5765 19.6664 15.9996C19.6664 18.4229 17.7717 20.3334 15.5003 20.3336C13.2288 20.3336 11.3333 18.423 11.3333 15.9996C11.3335 13.5764 13.2289 11.6666 15.5003 11.6666Z" stroke="white" stroke-width="2"/>
</svg>
